<svg width="16" height="13" viewBox="0 0 16 13" fill="none" xmlns="http://www.w3.org/2000/svg">
<path d="M12.3419 3.03592L12.4919 2.80892L12.7539 2.96792L12.8699 3.05092C13.15 3.26693 13.739 3.81894 13.866 4.73495C14.089 4.69495 14.314 4.67495 14.539 4.67495C15.073 4.67495 15.432 4.79895 15.636 4.90196L15.741 4.95896L15.809 5.00396L16 5.15996L15.934 5.35996C15.8314 5.63415 15.6711 5.8831 15.464 6.08998C15.174 6.38898 14.664 6.74199 13.855 6.78799L13.677 6.79299H13.529C13.159 7.77001 12.6619 8.87103 11.8269 9.85904C11.3315 10.4462 10.7438 10.9487 10.0869 11.3471C9.29938 11.8143 8.43699 12.1418 7.53785 12.3151C6.89384 12.4401 6.23983 12.5021 5.58482 12.5001C4.13479 12.5001 2.85477 12.2121 2.06775 11.7081C1.36474 11.2591 0.824732 10.5261 0.461725 9.53104C0.144046 8.62183 -0.0119798 7.66401 0.000716971 6.70099C-0.000928402 6.57752 0.0417583 6.45755 0.121026 6.36287C0.200294 6.26819 0.310887 6.20507 0.432725 6.18498L0.500726 6.17998H11.0409L11.1329 6.17298L11.2819 6.15698C11.5379 6.12298 11.9279 6.04698 12.2019 5.88697C11.8739 5.34396 11.7809 4.70895 11.9339 4.03294C11.998 3.75096 12.0989 3.47862 12.2339 3.22293L12.3419 3.03592ZM2.88977 4.28394L2.92977 4.29094C2.94804 4.29778 2.96449 4.30873 2.97784 4.32296C2.9912 4.33718 3.0011 4.35428 3.00677 4.37295L3.01277 4.41295V5.72797L3.00677 5.76897C3.00099 5.78774 2.99094 5.80491 2.97741 5.81914C2.96387 5.83337 2.94723 5.84426 2.92877 5.85097L2.88977 5.85697H1.47774C1.45143 5.85662 1.4259 5.8479 1.40487 5.83208C1.38383 5.81626 1.36838 5.79416 1.36074 5.76897L1.35374 5.72897V4.41195L1.36074 4.37195C1.36638 4.35299 1.37637 4.33562 1.38992 4.32121C1.40346 4.3068 1.42018 4.29575 1.43874 4.28894L1.47774 4.28294L2.88977 4.28394ZM4.8368 4.28394L4.8758 4.29094C4.89426 4.29765 4.91091 4.30855 4.92444 4.32278C4.93798 4.337 4.94803 4.35418 4.9538 4.37295L4.95981 4.41295V5.72797L4.9528 5.76897C4.94703 5.78774 4.93698 5.80491 4.92344 5.81914C4.90991 5.83337 4.89326 5.84426 4.8748 5.85097L4.8358 5.85697H3.42378C3.3975 5.85647 3.37205 5.84769 3.35105 5.83189C3.33004 5.81609 3.31455 5.79408 3.30678 5.76897L3.29978 5.72997V4.41295C3.29956 4.38619 3.30761 4.36002 3.32282 4.338C3.33804 4.31599 3.35967 4.29921 3.38478 4.28994L3.42378 4.28294L4.8368 4.28394ZM6.81284 4.28394L6.85184 4.29094C6.87011 4.29778 6.88656 4.30873 6.89991 4.32296C6.91327 4.33718 6.92316 4.35428 6.92884 4.37295L6.93584 4.41295V5.72797L6.92884 5.76897C6.92306 5.78774 6.91301 5.80491 6.89948 5.81914C6.88594 5.83337 6.86929 5.84426 6.85084 5.85097L6.81184 5.85697H5.39981C5.3735 5.85662 5.34797 5.8479 5.32694 5.83208C5.3059 5.81626 5.29045 5.79416 5.28281 5.76897L5.27681 5.72897V4.41195L5.28281 4.37195C5.28845 4.35299 5.29844 4.33562 5.31198 4.32121C5.32553 4.3068 5.34225 4.29575 5.36081 4.28894L5.39981 4.28294L6.81284 4.28394ZM8.76487 4.28394L8.80387 4.29094C8.82233 4.29765 8.83898 4.30855 8.85251 4.32278C8.86605 4.337 8.8761 4.35418 8.88187 4.37295L8.88888 4.41295V5.72797C8.88909 5.75473 8.88104 5.7809 8.86583 5.80291C8.85061 5.82493 8.82898 5.84171 8.80387 5.85097L8.76387 5.85697H7.35285C7.32653 5.85662 7.30101 5.8479 7.27997 5.83208C7.25894 5.81626 7.24348 5.79416 7.23585 5.76897L7.22985 5.72897V4.41195L7.23585 4.37195C7.24149 4.35299 7.25148 4.33562 7.26502 4.32121C7.27856 4.3068 7.29528 4.29575 7.31385 4.28894L7.35385 4.28294H8.76587L8.76487 4.28394ZM10.7349 4.28394L10.7739 4.29094C10.7924 4.29765 10.809 4.30855 10.8225 4.32278C10.8361 4.337 10.8461 4.35418 10.8519 4.37295L10.8579 4.41295V5.72797C10.8581 5.75473 10.8501 5.7809 10.8349 5.80291C10.8196 5.82493 10.798 5.84171 10.7729 5.85097L10.7339 5.85697H9.32188C9.29556 5.85662 9.27004 5.8479 9.24901 5.83208C9.22797 5.81626 9.21252 5.79416 9.20488 5.76897L9.19888 5.72897V4.41195L9.20488 4.37195C9.21052 4.35299 9.22051 4.33562 9.23405 4.32121C9.2476 4.3068 9.26432 4.29575 9.28288 4.28894L9.32288 4.28294H10.7339L10.7349 4.28394ZM4.8348 2.39191L4.8748 2.39891C4.89297 2.40565 4.90935 2.41645 4.92269 2.43049C4.93604 2.44453 4.946 2.46143 4.9518 2.47991L4.95881 2.52091V3.83594C4.95902 3.86269 4.95097 3.88887 4.93576 3.91088C4.92054 3.93289 4.89891 3.94968 4.8738 3.95894L4.8348 3.96594H3.42378C3.39725 3.9653 3.37161 3.95623 3.35057 3.94005C3.32954 3.92387 3.3142 3.90142 3.30678 3.87594L3.29978 3.83594V2.52091C3.29977 2.49433 3.30791 2.46838 3.32311 2.44656C3.33831 2.42475 3.35983 2.40811 3.38478 2.39891L3.42378 2.39191H4.8348ZM6.81084 2.39191L6.85084 2.39891C6.869 2.40565 6.88538 2.41645 6.89873 2.43049C6.91207 2.44453 6.92203 2.46143 6.92784 2.47991L6.93484 2.52091V3.83594C6.93505 3.86269 6.927 3.88887 6.91179 3.91088C6.89658 3.93289 6.87494 3.94968 6.84984 3.95894L6.81084 3.96594H5.39981C5.37328 3.9653 5.34764 3.95623 5.32661 3.94005C5.30557 3.92387 5.29023 3.90142 5.28281 3.87594L5.27681 3.83594V2.52091L5.28281 2.48091C5.28859 2.46214 5.29864 2.44497 5.31217 2.43074C5.32571 2.41652 5.34236 2.40562 5.36081 2.39891L5.39981 2.39191H6.81084ZM8.76387 2.39191C8.81787 2.39191 8.86387 2.42891 8.88087 2.47991L8.88787 2.52091V3.83594C8.88809 3.86269 8.88004 3.88887 8.86483 3.91088C8.84961 3.93289 8.82798 3.94968 8.80287 3.95894L8.76287 3.96594H7.35285C7.32632 3.9653 7.30068 3.95623 7.27964 3.94005C7.25861 3.92387 7.24327 3.90142 7.23585 3.87594L7.22985 3.83594V2.52091L7.23585 2.48091C7.24162 2.46214 7.25167 2.44497 7.26521 2.43074C7.27874 2.41652 7.29539 2.40562 7.31385 2.39891L7.35385 2.39191H8.76587H8.76387ZM8.76387 0.499878C8.81787 0.499878 8.86387 0.536879 8.88087 0.58788L8.88787 0.62788V1.9439C8.88809 1.97066 8.88004 1.99683 8.86483 2.01885C8.84961 2.04086 8.82798 2.05764 8.80287 2.06691L8.76287 2.07291H7.35285C7.32653 2.07255 7.30101 2.06384 7.27997 2.04801C7.25894 2.03219 7.24348 2.01009 7.23585 1.9849L7.22985 1.9449V0.62788L7.23585 0.58788C7.24162 0.569111 7.25167 0.551938 7.26521 0.53771C7.27874 0.523482 7.29539 0.512586 7.31385 0.505878L7.35285 0.499878H8.76487H8.76387Z" fill="#B4B6BE"/>
</svg>
