<svg width="16" height="19" viewBox="0 0 16 19" fill="none" xmlns="http://www.w3.org/2000/svg">
<path d="M7.99808 0.267014L0 4.88351V14.1165L7.99808 18.733L16 14.1165V4.88351L7.99808 0.267014ZM12.6146 13.0316C12.5692 13.5918 12.1037 14.0288 11.5359 14.0288C11.5012 14.0288 11.4674 14.0272 11.4335 14.0242H11.4381C11.432 14.0242 11.4251 14.0242 11.4181 14.0242C10.8742 14.0242 10.3863 13.7833 10.0555 13.4032L10.054 13.4009L5.43746 7.90654V13.0309V13.0416C5.43746 13.5825 5.00043 14.0211 4.45953 14.0234H4.39798C3.8517 14.0188 3.41005 13.5771 3.40543 13.0316V5.96838C3.44314 5.41056 3.90555 4.97199 4.46954 4.97199C4.50108 4.97199 4.53263 4.97353 4.56341 4.97584H4.55956H4.58956C5.13739 4.97584 5.62982 5.2159 5.96605 5.59753L5.96759 5.59983L10.561 11.0942V5.96915C10.5656 5.42287 11.0073 4.98122 11.5528 4.97661H11.6113C12.1575 4.98122 12.5992 5.42287 12.6038 5.96838V13.0324L12.6146 13.0316Z" fill="#B4B6BE"/>
</svg>
