<svg width="34" height="34" viewBox="0 0 34 34" fill="none" xmlns="http://www.w3.org/2000/svg">
<rect width="34" height="34" rx="10" fill="#1A1C1E"/>
<path d="M19.2666 20.4L14.7333 24.82L19.2666 29.24" stroke="#26B99A" stroke-width="3.333"/>
<path d="M23.681 13.1467C24.3937 14.3892 24.7476 15.8073 24.703 17.2414C24.6582 18.6755 24.2168 20.0686 23.4282 21.2638C22.6395 22.459 21.5352 23.4089 20.2393 24.0065C18.9434 24.6039 17.5076 24.8256 16.0934 24.6462" stroke="#26B99A" stroke-width="3.333" stroke-linecap="round"/>
<path d="M14.7333 13.6L19.2666 9.29336L14.7333 4.98669" stroke="#A4E869" stroke-width="3.333"/>
<path d="M10.3174 20.8533C9.59555 19.5927 9.24253 18.1518 9.29923 16.6974C9.35594 15.2429 9.82004 13.8343 10.6378 12.6347C11.4556 11.4351 12.5936 10.4936 13.9201 9.91905C15.2466 9.34452 16.7073 9.1605 18.1333 9.3883" stroke="#A4E869" stroke-width="3.333" stroke-linecap="round"/>
</svg>
